<?xml version="1.0" encoding="utf-8"?>
<!-- Generator: Adobe Illustrator 25.2.1, SVG Export Plug-In . SVG Version: 6.00 Build 0)  -->
<svg version="1.1" id="Layer_1" xmlns="http://www.w3.org/2000/svg" xmlns:xlink="http://www.w3.org/1999/xlink" x="0px" y="0px"
	 viewBox="0 0 288 288" style="enable-background:new 0 0 288 288;" xml:space="preserve">
<g>
	<path d="M86.52,79.73c1.63,0.88,1.54,6.08,1.54,6.08s36.2,30.91,41.55,35.57c5.35,4.66,40.27,17.21,53.81,28.32
		c13.53,11.11,30.08,45.08,30.1,46.68c0.03,2.08-3.94,6.17-4.68,6.91c0.03,0.03,0.07,0.06,0.07,0.06s-4.28,5.25-6.57,5.44
		c-1.61,0.13-36.94-13.25-49.24-25.71c-12.3-12.47-28.01-46.11-33.14-51.02c-5.13-4.9-39.19-38.13-39.19-38.13s-5.11,0.49-6.13-1.05
		c-1.02-1.54-0.45-5.69,1.86-7.88c0.68-0.65,1.76-1.97,2.35-2.71C80.81,79.8,84.89,78.85,86.52,79.73z"/>
</g>
</svg>
