<?xml version="1.0" encoding="utf-8"?>
<!-- Generator: Adobe Illustrator 25.2.1, SVG Export Plug-In . SVG Version: 6.00 Build 0)  -->
<svg version="1.1" id="Layer_1" xmlns="http://www.w3.org/2000/svg" xmlns:xlink="http://www.w3.org/1999/xlink" x="0px" y="0px"
	 viewBox="0 0 792 1008" style="enable-background:new 0 0 792 1008;" xml:space="preserve">
<style type="text/css">
	.st0{fill:none;stroke:#000000;stroke-width:2;stroke-miterlimit:10;}
	.st1{fill:none;stroke:#000000;stroke-width:1.9848;stroke-miterlimit:10;}
</style>
<g>
	<path class="st0" d="M205.16,151.35c-2.11,0-11.67-6.32-11.67-19.13c0-12.81,8.43-13.13,8.43-13.13h30.98c0,0,8.43,0.32,8.43,13.13
		c0,12.81-9.56,19.13-11.67,19.13C227.87,151.35,206.94,151.35,205.16,151.35z"/>
	<polygon class="st0" points="230.51,215.68 229.57,169.56 209.03,151.35 205.16,151.35 203.8,195.47 	"/>
	<line class="st0" x1="228.89" y1="168.96" x2="228.58" y2="151.35"/>
	<polygon class="st0" points="203.52,195.21 202.71,254.64 232.34,281.01 231.38,216.41 	"/>
	<polygon class="st0" points="199.16,337.84 201.55,253.55 233.12,281.68 234.91,378.53 	"/>
	<polygon class="st0" points="197.53,335.95 195.41,448.36 236.95,448.36 236.95,380.76 	"/>
	<polygon class="st0" points="238.02,472.07 237.62,448.36 194.71,448.36 194.49,471.97 	"/>
	<path class="st0" d="M245.58,815.54l21.52-91.37c0,0,5.53-31.21,5.53-52.54c0-21.33-6.72-49.77-6.72-49.77l-29.19-149.58"/>
	<path class="st0" d="M195.64,472.28l-29.19,149.58c0,0-6.72,28.44-6.72,49.77c0,21.33,5.53,52.54,5.53,52.54l21.48,91.58"/>
	<path class="st0" d="M193.57,827.44c0,0-1.26-1.77-2.25-4.64c-1.75-0.25-4.45-0.76-4.45-0.76l-1.37-6.51h0.45h60.47h0.45
		l-1.37,6.51c0,0-2.71,0.51-4.45,0.76c-0.99,2.87-2.25,4.64-2.25,4.64H193.57z"/>
</g>
<g>
	<path class="st1" d="M410.17,792.43c2.09,0,11.58,6.27,11.58,18.98c0,12.71-8.37,13.03-8.37,13.03h-30.74c0,0-8.37-0.32-8.37-13.03
		c0-12.71,9.49-18.98,11.58-18.98C387.64,792.43,408.4,792.43,410.17,792.43z"/>
	<polygon class="st1" points="378.3,538.05 415.21,538.05 410.17,792.43 385.87,792.43 	"/>
	<path class="st1" d="M396.76,538.05h18.97c0,0,1.65-5.43,2.03-11.95c0.38-6.52-0.29-11.36-0.29-11.36h-20.71"/>
	<path class="st1" d="M395.59,538.05h-18.97c0,0-1.65-5.43-2.03-11.95c-0.38-6.52,0.29-11.36,0.29-11.36h20.71"/>
	<path class="st1" d="M395.24,514.73h21.47l31.83-180.13c3.84-25.68,7.06-54.1,0-99.38s-24.29-98.71-24.29-98.71h-56.86
		c0,0-16.88,53.43-23.93,98.71s-3.84,73.7,0,99.38l32.3,180.13h21"/>
	<polygon class="st1" points="367.05,136.52 370.93,124.71 420.85,124.71 424.58,136.52 	"/>
</g>
<g>
	<path class="st0" d="M576.34,150.83h-11.93c-7.02,0-12.67-7.5-12.67-16.38c0-7.28,7.96-15.36,17.03-15.36h5.65h-0.18h5.65
		c9.07,0,17.03,8.08,17.03,15.36c0,8.88-5.65,16.38-12.67,16.38h-11.93"/>
	<polyline class="st0" points="585.54,150.83 586.72,201.41 560.06,233.51 561.77,150.47 	"/>
	<polygon class="st0" points="587.01,201.05 588,285.3 559.56,319.52 559.78,233.84 	"/>
	<polygon class="st0" points="588.42,284.85 591.97,425.32 574.52,448.84 556.6,448.84 558.98,320.27 	"/>
	<polygon class="st0" points="592.22,448.84 592.22,425.03 574.52,448.84 	"/>
	<path class="st0" d="M574.52,471.58h21.7c0,0,0.22-14.96-4-22.74c-3.48,0-17.7,0-17.7,0"/>
	<path class="st0" d="M574.52,471.58h-21.7c0,0-0.22-14.96,4-22.74c3.48,0,17.7,0,17.7,0"/>
	<path class="st0" d="M553.14,471.58c0,0-33.35,171.22-33.35,199.66s2.77,54.12,11.06,83.74c8.3,29.63,16.2,60.56,16.2,60.56h28.05
		h-1.26h28.05c0,0,7.9-30.93,16.2-60.56c8.3-29.63,11.06-55.3,11.06-83.74s-33.35-199.66-33.35-199.66"/>
	<path class="st0" d="M602,815.54c0,0-0.55,8.08-5.46,11.98c-3.04,0-41.21,0-44.25,0c-4.92-3.9-5.46-11.98-5.46-11.98"/>
</g>
</svg>
